<svg width="50" height="50" viewBox="0 0 50 50" fill="none" xmlns="http://www.w3.org/2000/svg">
<g id="Integration instructions" clip-path="url(#clip0_1451_50)">
<g id="Group">
<path id="Vector" d="M39.5833 6.25004H30.875C30 3.83337 27.7083 2.08337 25 2.08337C22.2917 2.08337 20 3.83337 19.125 6.25004H10.4167C10.125 6.25004 9.85417 6.27087 9.58333 6.33337C8.77083 6.50004 8.04167 6.91671 7.47917 7.47921C7.10417 7.85421 6.79167 8.31254 6.58333 8.81254C6.375 9.29171 6.25 9.83337 6.25 10.4167V39.5834C6.25 40.1459 6.375 40.7084 6.58333 41.2084C6.79167 41.7084 7.10417 42.1459 7.47917 42.5417C8.04167 43.1042 8.77083 43.5209 9.58333 43.6875C9.85417 43.7292 10.125 43.75 10.4167 43.75H39.5833C41.875 43.75 43.75 41.875 43.75 39.5834V10.4167C43.75 8.12504 41.875 6.25004 39.5833 6.25004ZM22.9167 29.5209L19.9792 32.4792L12.5 25L19.9792 17.5209L22.9167 20.4792L18.3958 25L22.9167 29.5209ZM25 8.85421C24.1458 8.85421 23.4375 8.14587 23.4375 7.29171C23.4375 6.43754 24.1458 5.72921 25 5.72921C25.8542 5.72921 26.5625 6.43754 26.5625 7.29171C26.5625 8.14587 25.8542 8.85421 25 8.85421ZM30.0208 32.4792L27.0833 29.5209L31.6042 25L27.0833 20.4792L30.0208 17.5209L37.5 25L30.0208 32.4792Z" fill="#D9D9D9"/>
</g>
</g>
<defs>
<clipPath id="clip0_1451_50">
<rect width="50" height="50" fill="white"/>
</clipPath>
</defs>
</svg>
