<?xml version="1.0" encoding="utf-8"?>
<!-- Svg Vector Icons : http://www.onlinewebfonts.com/icon -->
<!DOCTYPE svg PUBLIC "-//W3C//DTD SVG 1.1//EN" "http://www.w3.org/Graphics/SVG/1.1/DTD/svg11.dtd">
<svg version="1.1" xmlns="http://www.w3.org/2000/svg" xmlns:xlink="http://www.w3.org/1999/xlink" x="0px" y="0px" viewBox="0 0 1000 1000" enable-background="new 0 0 1000 1000" xml:space="preserve">
<metadata> Svg Vector Icons : http://www.onlinewebfonts.com/icon </metadata>
<g><path d="M751.1,720.5c0-42.9-12.3-85.8-36.8-116.4c-42.9-49-91.9-73.5-153.1-73.5c-36.8,0-73.5,0-110.3,0c-42.9,0-79.6,12.3-116.4,36.8c-42.9,30.6-67.4,73.5-73.5,122.5c-6.1,55.1,0,116.4-6.1,177.6c6.1,0,18.4,6.1,24.5,6.1c73.5,18.4,140.9,36.8,214.4,36.8c42.9,0,91.9,0,134.8-6.1c36.8-6.1,73.5-18.4,110.3-30.6c6.1,0,6.1-6.1,6.1-12.3C751.1,812.4,751.1,763.4,751.1,720.5z"/><path d="M353,518.4c12.2-6.1,18.4-6.1,30.6-12.3c-36.8-36.8-55.1-73.5-55.1-122.5c-42.9,0-85.8,0-128.6,0c-24.5,0-49,6.1-67.4,12.3C65.1,420.4,10,487.8,10,561.3c0,49,0,98,0,153.1c0,6.1,0,6.1,6.1,12.3c49,12.3,98,24.5,147,30.6c18.4,0,42.9,6.1,61.3,6.1c0-12.3,0-24.5,0-36.8c0-18.4,0-36.8,6.1-55.1C248.9,598,291.8,549,353,518.4z"/><path d="M990,573.5c0-24.5-6.1-55.1-18.4-79.6c-36.8-73.5-91.9-110.2-171.5-110.2c-116.4,0,0,0-116.4,0c0,49-18.4,91.9-55.1,122.5c6.1,0,12.3,6.1,12.3,6.1c30.6,12.3,61.3,30.6,85.8,55.1c36.8,42.9,55.1,91.9,55.1,147c0,12.3,0,30.6,0,42.9c30.6-6.1,55.1-6.1,85.8-12.3c36.8-6.1,79.6-18.4,116.4-36.8c6.1,0,6.1-6.1,6.1-12.3C990,665.4,990,616.4,990,573.5z"/><path d="M506.1,524.5c79.6,0,147-67.4,140.9-147c0-79.6-67.4-140.9-140.9-140.9c-79.6,0-147,61.3-147,140.9C365.3,457.1,426.5,524.5,506.1,524.5z"/><path d="M683.8,365.3c18.4,6.1,36.8,12.3,61.3,12.3c79.6,0,147-67.4,140.9-147c0-79.6-67.4-140.9-140.9-140.9c-79.6,0-147,61.3-147,140.9C647,255,677.6,304,683.8,365.3z"/><path d="M255,377.5c24.5,0,55.1-6.1,73.5-18.4c6.1-49,30.6-91.9,67.4-116.4v-6.1c0-79.6-67.4-140.9-140.9-140.9c-79.6,0-147,61.3-147,140.9C108,310.1,175.4,377.5,255,377.5z"/></g>
</svg>